<?xml version="1.0" encoding="utf-8"?>
<!-- Generator: Adobe Illustrator 21.0.0, SVG Export Plug-In . SVG Version: 6.00 Build 0)  -->
<svg version="1.1" xmlns="http://www.w3.org/2000/svg" xmlns:xlink="http://www.w3.org/1999/xlink" x="0px" y="0px"
	 viewBox="0 0 1280 1000" style="enable-background:new 0 0 1280 1000;" xml:space="preserve">
<style type="text/css">
	.st0{fill:url(#SVGID_1_);}
	.st1{fill:#FFFFFF;}
	.st2{fill:none;}
	.st3{fill:#E8FAFC;}
	.st4{fill:#ABE080;}
	.st5{fill:#91D66B;}
	.st6{fill:#6DB564;}
	.st7{fill:#449469;}
	.st8{fill:#4FA159;}
	.st9{fill:#338F68;}
	.st10{fill:#D99E9E;}
	.st11{fill:#F2DFDF;}
	.st12{fill:#CAD2D9;}
	.st13{fill:#B0B7BD;}
	.st14{fill:#6AA657;}
	.st15{fill:#67B55D;}
	.st16{fill:#538F57;}
	.st17{fill:#69483D;}
	.st18{fill:#4D8046;}
	.st19{clip-path:url(#SVGID_3_);fill:#4D8046;}
	.st20{clip-path:url(#SVGID_3_);}
	.st21{fill:none;stroke:#633730;stroke-width:8;stroke-linecap:round;stroke-linejoin:round;stroke-miterlimit:10;}
	.st22{fill:#FFDED6;}
	.st23{fill:#F2C4B8;}
	.st24{fill:#FFB2AB;}
	.st25{fill:#FFF2F2;}
	.st26{fill:#FFA9A1;}
	.st27{fill:#DB7167;}
	.st28{fill:#EB7259;}
	.st29{fill:none;stroke:#633730;stroke-width:2;stroke-linecap:round;stroke-linejoin:round;stroke-miterlimit:10;}
	.st30{fill:#633730;}
	.st31{fill:none;stroke:#633730;stroke-width:4;stroke-linecap:round;stroke-linejoin:round;stroke-miterlimit:10;}
	.st32{clip-path:url(#SVGID_5_);fill:#4D8046;}
	.st33{clip-path:url(#SVGID_5_);}
	.st34{clip-path:url(#SVGID_7_);fill:#4D8046;}
	.st35{clip-path:url(#SVGID_7_);}
	.st36{clip-path:url(#SVGID_9_);fill:#4D8046;}
	.st37{clip-path:url(#SVGID_9_);}
	.st38{clip-path:url(#SVGID_11_);}
	.st39{fill:#8AA7E6;}
	.st40{fill:#FCC64C;}
	.st41{fill:#FF8C82;}
	.st42{opacity:0.77;fill:#FFF2F2;}
	.st43{fill:#FF9D94;}
	.st44{fill:#6886C4;}
	.st45{fill:#CC9D33;}
	.st46{clip-path:url(#SVGID_13_);}
	.st47{clip-path:url(#SVGID_15_);}
	.st48{clip-path:url(#SVGID_17_);}
	.st49{clip-path:url(#SVGID_19_);fill:#4D8046;}
	.st50{clip-path:url(#SVGID_19_);}
	.st51{clip-path:url(#SVGID_21_);}
	.st52{clip-path:url(#SVGID_23_);}
	.st53{clip-path:url(#SVGID_25_);}
	.st54{clip-path:url(#SVGID_27_);}
	.st55{clip-path:url(#SVGID_29_);}
	.st56{clip-path:url(#SVGID_31_);}
	.st57{clip-path:url(#SVGID_33_);}
	.st58{clip-path:url(#SVGID_35_);}
	.st59{clip-path:url(#SVGID_37_);}
	.st60{fill:#F0B42D;}
	.st61{fill:#705139;}
	.st62{fill:#FFF200;}
	.st63{fill:#19476E;}
	.st64{fill:url(#SVGID_38_);}
	.st65{opacity:0.3;}
	.st66{fill:#7A290F;}
	.st67{fill:url(#SVGID_39_);}
	.st68{opacity:0.4;}
	.st69{display:none;}
	.st70{display:inline;}
</style>
<g id="圖層_11">
	<g>
		<g>
			<linearGradient id="SVGID_1_" gradientUnits="userSpaceOnUse" x1="639.9773" y1="46.7969" x2="639.9773" y2="140.4119">
				<stop  offset="0" style="stop-color:#42A6D4"/>
				<stop  offset="1" style="stop-color:#65C0D6"/>
			</linearGradient>
			<path class="st0" d="M1280.5,287.9c-0.6-39.5,0-288.7,0-288.7H-0.5c0,0-0.1,237.8,0,282.2C69,281.4,1215.7,287.9,1280.5,287.9z"
				/>
			<g>
				<path class="st1" d="M1165.2,231.9c0.5-26-35.1-78.9-92.8-83c6.3-13.2-0.7-47-21.7-49.7c4.9-14.2-4.8-26.9-14.7-28.4
					c4.3-38.1-18.4-71-57.8-71.6c-17.9-0.3-126.5,0-148.5,0c-21.1,12.1-38.1,41.5-45.5,65.4c-9.6,30.9-3.4,66.6,16,92
					c-12.4,0.5-24.4,6.8-32.1,16.8c-21.6-18.8-53.1-24.4-79.5-14.2c-9.2,3.6-18,9.1-23.9,17.2c-6,8.1-8.9,19-6.1,28.8
					c-6.9-1.7-14.5-1.7-20.8,1.8c-6.2,3.5-10.6,11.2-9,18.3c-17.3-3.3-36.1,9.9-39.5,27.8c142.7-0.7,504.5-1.2,598.8,6.4
					C1190.1,246,1178.5,232,1165.2,231.9z"/>
				<path class="st2" d="M472.1,83.6c-0.3,0.3-0.7,0.7-1,1"/>
				<path class="st1" d="M448.9,104.1c-1.8-16.6-13.1-45.9-56.7-42c-19.5,1.7-35.6,22.6-37.8,35.3c-12.8-1.5-34.7-1.1-47.4,23.1
					c-0.3,0.6-0.6,1.8-0.8,3.2c-10.8-3.8-25.8,1.6-33.5,8.1c-10.5,8.7-15.9,23-13.8,36.4c-2-1.3-4.8-1.1-6.6,0.5
					c-1.8,1.6-2.2,4.4-1.1,6.5c-9.8-0.4-19.7,4.8-24.9,13.1c-2.3,3.7-3.7,8.2-3.1,12.5s3.6,8.5,7.9,9.6c2.7,0.7,216.7-82,216.7-82
					S448.9,111.6,448.9,104.1z"/>
				<path class="st3" d="M525.7,159c2.2-31.5-32.4-57.2-53.3-45.7c1.8-14.3-16.5-17.5-23.6-9.2c-0.7-6.9-4.9-45.1-45.1-34.6
					c-25.2,6.6-23.2,33.8-14.8,45c-23.8-17.2-58-0.9-60,18.6c-10.5-6.8-41.3,2-38.3,27.5c-9.8,2.3-21.3,7-22.2,17
					c-3.3,0-6.5,1.7-8.4,4.4s-2.9,8.4-1.9,11.5c18.3-4.5,235.5-17.5,277.8-19.6C550.3,175.5,537.9,154.1,525.7,159z"/>
				<path class="st3" d="M1077.7,205.9c7.4-15.7,0.8-45.5-31.1-47.4c8.5-6.9,0.2-21.4-6.5-20.2c10.3-33.8-16.3-71-48-77.2
					c16-9.7,8-57.1-17.7-61.9c-52.3,0-92.5,0-107.7,0c-47,13.2-65.3,119.3-12,152.6c-18.5-1-27,10.3-27.3,19.7
					c0,0.7-0.6,1.4-1.2,1.3c-26-5.8-53.3,6.2-57.6,23.8c-11.9-7.9-32.4-1.6-34.1,6.6c-0.1,0.6-1,0.7-1.5,0.4
					c-12.6-7-57.6,0.8-60.3,21.5c-13.8-1.2-32.3,13.4-34.5,27.8c126.4-0.6,454.3-2.6,505.1,3
					C1142.1,210.2,1087.4,191.8,1077.7,205.9z"/>
			</g>
			<g>
				<path class="st4" d="M1154.2,251.8c-15.3-1.5-74.3-8.9-100.8-16.6c-76-22.4-165.3-54.7-235.5-46.7c-68.3,7.7-79.2,36.4-259,56.7
					C578.9,251.4,1105.3,256.3,1154.2,251.8z"/>
				<path class="st5" d="M418.9,133.6c-50.7-5.2-91,11.4-133.3,33.2c-4.1,2.1-100.2,55.2-240.8,86.2c193.3,0,574-4,751.2-3.9
					C618.4,219.4,508.4,142.9,418.9,133.6z"/>
			</g>
			<path class="st6" d="M1280.5,254.9c-54-0.1-135.2-3.5-168.6-5.1c-210.9-8.1-726.8-3-798.1-0.6c-42.6,1.4-77.8-1.4-120.5-0.9
				C81,249.6,47.8,253.2,36.2,254c-9.4,0.6-29.9,1-36.8,1c0,11.3,0,745.9,0,745.9h1281.1C1280.5,1000.8,1280.5,350.9,1280.5,254.9z"
				/>
			<g>
				<g>
					<path class="st1" d="M572.8,247.3c0.1-11.4,0-35.1-0.2-38.1c-0.9-0.4-6-1.1-6.3,0.4c-0.5,2.7-0.4,25.8-0.3,37.7H572.8z"/>
					<path class="st1" d="M526.6,247.3c0.1-10.5,0.1-35.9-0.2-39c-0.6-1.9-4.4-0.9-6.7,1.1c-0.1,3.6,0,27,0.1,37.9H526.6z"/>
					<path class="st1" d="M472.3,247.3h7.2c0.5-10.5,0.1-37-0.1-40.1c0.1-2.3-7.1-1.4-6.6,0.2C472.3,210.2,472.3,236,472.3,247.3z"
						/>
					<path class="st1" d="M578.8,213.9c-36.1-0.2-74.8,0.1-110.9-0.1c-2.8,0-1.1,4.7,0.1,4.7c16.4,0.3,46.1,0,61.8,0.1
						c15.8,0,46.9,0,48.8-0.2C580.5,218.2,580.4,214.7,578.8,213.9z"/>
					<path class="st1" d="M579.3,228.5c-36.8-0.2-77.4-0.3-112.8-0.5c-1.8,0-0.4,4.5,0.7,4.5c16.4,0.2,46.1,0,61.8,0.1
						c15.8,0,47.3,0,49.2,0C580.3,232.7,579.9,228.6,579.3,228.5z"/>
				</g>
				<path class="st7" d="M836.7,213.8c-6.8-10.8-28.2-9.7-34.4,2.4c-1.7-1.5-6.6,0.5-8,3.4c-14.1-2.3-26.4,10.4-26,18.5
					c-9.3-6.5-25.7,4.6-23.1,18.3c10.8,0.3,123.2,0.5,128.9,0.3C884.8,256.3,865.9,200.3,836.7,213.8z"/>
				<path class="st8" d="M409.9,223.6c1.9-12.1-8-23.5-21.2-15.6c0.5-9-7.9-11.7-10.3-8.5c-5.3-17.8-32.4-15.2-37-2.2
					c-10.1-7.1-23.8-1.1-28.5,6.3c-0.7,1.2-1.5,2.4-2,3.8c-0.1,0-0.2,0-0.3,0c-0.8,0-1.5,0.1-2.3,0.2c-3,0.5-5.8,2-8,4.3
					c-4.4,4.3-6.2,11-5.2,17.4c-4.7,2.5-8.7,7-9.5,13.1c-0.9,7.5,5.7,13.1,24.4,13c7.9,0,145.9-3.6,141.5-4.1
					C458.4,235.6,423.9,216.9,409.9,223.6z"/>
				<path class="st7" d="M498.2,243.8c2.4-13.9-8-16.9-13.5-15.7c1.1-10.5-14.1-24-28.3-20.5c-7.7-14.3-36.4-13-41.2,3.5
					c-2.4-3.5-14.6,1.5-14.4,10.1c-10.6-6.4-28.4,2.9-26.8,22.5c-8.5-6.9-25.6-2.1-25.6,12.8c0,2.7,13.7,2.3,20.9,2.5
					c25.1,0.8,129.8-0.4,136.3-2C515.9,254.5,506.9,239.8,498.2,243.8z"/>
				<path class="st8" d="M600.3,243.1c1.7-5.8-4.7-8.6-8.3-6.9c-0.3-7.8-13.6-10.1-16.3-0.6c-1.5-2-8.8-0.5-8.4,4.2
					c-0.8-1.3-4.1-1-4.1,2.2c-0.1,0-7.1,2.1-6.4,7.1c12-0.2,47,0.4,48.2-0.4C607.2,246.8,604.9,240.5,600.3,243.1z"/>
				<path class="st5" d="M422.5,257.3c1.3-4.5-3.6-8-6.4-6.7c-0.2-6-10.4-7-12.5,0.3c-2.9-0.7-6.9,1.2-7.3,5.5
					c-3.1-1.9-7.4,0.1-7.5,4.2c9.3-0.2,36.4,0.3,37.4-0.3C428,258.8,426,255.6,422.5,257.3z"/>
			</g>
		</g>
		<g>
			<g>
				<path class="st9" d="M422.2,340.3c-0.8-1.8-3.9-0.5-3.2,1.3c0.4,0.9,0.6,1.7,0.8,2.7c0.2,1,0.2,1.8,0.9,2.7
					c0.7,0.8,2.1,0.5,2.5-0.3C424.3,344.7,423,342,422.2,340.3z"/>
				<path class="st9" d="M431.5,338.7c-1.4-1.3-3.4,0.3-2.6,2c0.4,0.8,0.1,1.7,0,2.6c-0.2,2,2.9,2.7,3.8,1
					C433.6,342.3,433,340,431.5,338.7z"/>
				<path class="st9" d="M441.2,338.2c-0.4-0.6-1.3-0.8-1.8-0.2c-0.8,0.8-0.9,1.7-1.1,2.7c-0.2,1-0.5,2-0.8,3.1
					c-0.6,2.1,2.5,2.9,3.2,0.9C441.3,342.8,442.3,340,441.2,338.2z"/>
			</g>
			<g>
				<path class="st9" d="M163.7,652.4c-0.8-1.8-3.9-0.5-3.2,1.3c0.4,0.9,0.6,1.7,0.8,2.7c0.2,1,0.2,1.8,0.9,2.7
					c0.7,0.8,2.1,0.5,2.5-0.3C165.8,656.8,164.5,654.1,163.7,652.4z"/>
				<path class="st9" d="M173,650.8c-1.4-1.3-3.4,0.3-2.6,2c0.4,0.8,0.1,1.7,0,2.6c-0.2,2,2.9,2.7,3.8,1
					C175.1,654.4,174.5,652.1,173,650.8z"/>
				<path class="st9" d="M182.7,650.3c-0.4-0.6-1.3-0.8-1.8-0.2c-0.8,0.8-0.9,1.7-1.1,2.7c-0.2,1-0.5,2-0.8,3.1
					c-0.6,2.1,2.5,2.9,3.2,0.9C182.8,654.9,183.8,652.1,182.7,650.3z"/>
			</g>
			<g>
				<path class="st9" d="M681.6,365.5c-0.7-1.8-3.9-0.8-3.3,1.1c0.3,0.9,0.5,1.8,0.6,2.7c0.1,1,0.1,1.9,0.8,2.7
					c0.6,0.8,2,0.7,2.5-0.1C683.4,370.1,682.3,367.3,681.6,365.5z"/>
				<path class="st9" d="M691,364.5c-1.3-1.4-3.4,0.1-2.7,1.8c0.3,0.8,0,1.7-0.2,2.6c-0.3,2,2.7,2.9,3.7,1.3
					C692.9,368.4,692.5,366,691,364.5z"/>
				<path class="st9" d="M700.7,364.8c-0.3-0.6-1.2-0.9-1.8-0.4c-0.8,0.7-1,1.6-1.3,2.6c-0.3,1-0.7,2-1,3c-0.7,2,2.3,3.1,3.1,1.1
					C700.5,369.4,701.7,366.6,700.7,364.8z"/>
			</g>
			<g>
				<path class="st9" d="M656.1,898.8c-0.7-1.8-3.9-0.8-3.3,1.1c0.3,0.9,0.5,1.8,0.6,2.7c0.1,1,0.1,1.9,0.8,2.7
					c0.6,0.8,2,0.7,2.5-0.1C657.8,903.4,656.7,900.6,656.1,898.8z"/>
				<path class="st9" d="M665.4,897.8c-1.3-1.4-3.4,0.1-2.7,1.8c0.3,0.8,0,1.7-0.2,2.6c-0.3,2,2.7,2.9,3.7,1.3
					C667.3,901.7,666.9,899.3,665.4,897.8z"/>
				<path class="st9" d="M675.1,898.1c-0.3-0.6-1.2-0.9-1.8-0.4c-0.8,0.7-1,1.6-1.3,2.6c-0.3,1-0.7,2-1,3c-0.7,2,2.3,3.1,3.1,1.1
					C674.9,902.7,676.1,899.9,675.1,898.1z"/>
			</g>
			<g>
				<path class="st9" d="M323.4,749.5c-0.3-1.9-3.6-1.5-3.4,0.5c0.1,0.9,0.2,1.9,0.1,2.8c-0.1,1-0.3,1.8,0.2,2.8
					c0.4,0.9,1.8,1.1,2.5,0.3C324.3,754.4,323.8,751.4,323.4,749.5z"/>
				<path class="st9" d="M332.8,750.4c-1.1-1.6-3.3-0.6-3,1.2c0.1,0.8-0.4,1.7-0.7,2.5c-0.7,1.9,2.1,3.4,3.4,2
					C333.9,754.5,334,752.1,332.8,750.4z"/>
				<path class="st9" d="M342.3,752.5c-0.2-0.7-1-1.1-1.7-0.7c-0.9,0.5-1.3,1.4-1.8,2.3c-0.5,0.9-1,1.8-1.6,2.7
					c-1.1,1.9,1.7,3.5,2.9,1.7C341.2,757,342.9,754.5,342.3,752.5z"/>
			</g>
			<g>
				<path class="st9" d="M907,717.8c-0.3-1.9-3.6-1.5-3.4,0.5c0.1,0.9,0.2,1.9,0.1,2.8c-0.1,1-0.3,1.8,0.2,2.8
					c0.4,0.9,1.8,1.1,2.5,0.3C907.8,722.7,907.3,719.7,907,717.8z"/>
				<path class="st9" d="M916.3,718.7c-1.1-1.6-3.3-0.6-3,1.2c0.1,0.8-0.4,1.7-0.7,2.5c-0.7,1.9,2.1,3.4,3.4,2
					C917.5,722.8,917.5,720.4,916.3,718.7z"/>
				<path class="st9" d="M925.8,720.8c-0.2-0.7-1-1.1-1.7-0.7c-0.9,0.5-1.3,1.4-1.8,2.3c-0.5,0.9-1,1.8-1.6,2.7
					c-1.1,1.9,1.7,3.5,2.9,1.7C924.7,725.3,926.4,722.8,925.8,720.8z"/>
			</g>
			<g>
				<path class="st9" d="M1049.6,698.2c-0.3-1.9-3.6-1.5-3.4,0.5c0.1,0.9,0.2,1.9,0.1,2.8c-0.1,1-0.3,1.8,0.2,2.8
					c0.4,0.9,1.8,1.1,2.5,0.3C1050.5,703.1,1050,700.1,1049.6,698.2z"/>
				<path class="st9" d="M1059,699.1c-1.1-1.6-3.3-0.6-3,1.2c0.1,0.8-0.4,1.7-0.7,2.5c-0.7,1.9,2.1,3.4,3.4,2
					C1060.1,703.2,1060.2,700.8,1059,699.1z"/>
				<path class="st9" d="M1068.5,701.2c-0.2-0.7-1-1.1-1.7-0.7c-0.9,0.5-1.3,1.4-1.8,2.3c-0.5,0.9-1,1.8-1.6,2.7
					c-1.1,1.9,1.7,3.5,2.9,1.7C1067.4,705.7,1069.1,703.2,1068.5,701.2z"/>
			</g>
			<g>
				<path class="st9" d="M1191.8,847.8c-0.3-1.9-3.6-1.5-3.4,0.5c0.1,0.9,0.2,1.9,0.1,2.8c-0.1,1-0.3,1.8,0.2,2.8
					c0.4,0.9,1.8,1.1,2.5,0.3C1192.7,852.7,1192.2,849.7,1191.8,847.8z"/>
				<path class="st9" d="M1201.2,848.7c-1.1-1.6-3.3-0.6-3,1.2c0.1,0.8-0.4,1.7-0.7,2.5c-0.7,1.9,2.1,3.4,3.4,2
					C1202.3,852.8,1202.3,850.4,1201.2,848.7z"/>
				<path class="st9" d="M1210.7,850.8c-0.2-0.7-1-1.1-1.7-0.7c-0.9,0.5-1.3,1.4-1.8,2.3c-0.5,0.9-1,1.8-1.6,2.7
					c-1.1,1.9,1.7,3.5,2.9,1.7C1209.6,855.3,1211.3,852.8,1210.7,850.8z"/>
			</g>
			<g>
				<path class="st9" d="M778.2,494.8c0.3-1.9,3.6-1.5,3.4,0.5c-0.1,0.9-0.2,1.9-0.1,2.8c0.1,1,0.3,1.8-0.2,2.8
					c-0.4,0.9-1.8,1.1-2.5,0.3C777.3,499.6,777.8,496.7,778.2,494.8z"/>
				<path class="st9" d="M768.8,495.6c1.1-1.6,3.3-0.6,3,1.2c-0.1,0.8,0.4,1.7,0.7,2.5c0.7,1.9-2.1,3.4-3.4,2
					C767.7,499.8,767.6,497.4,768.8,495.6z"/>
				<path class="st9" d="M759.3,497.8c0.2-0.7,1-1.1,1.7-0.7c0.9,0.5,1.3,1.4,1.8,2.3c0.5,0.9,1,1.8,1.6,2.7
					c1.1,1.9-1.7,3.5-2.9,1.7C760.4,502.3,758.7,499.8,759.3,497.8z"/>
			</g>
			<g>
				<path class="st9" d="M317.4,416.8c0.3-1.9,3.6-1.5,3.4,0.5c-0.1,0.9-0.2,1.9-0.1,2.8c0.1,1,0.3,1.8-0.2,2.8
					c-0.4,0.9-1.8,1.1-2.5,0.3C316.6,421.7,317.1,418.7,317.4,416.8z"/>
				<path class="st9" d="M308.1,417.7c1.1-1.6,3.3-0.6,3,1.2c-0.1,0.8,0.4,1.7,0.7,2.5c0.7,1.9-2.1,3.4-3.4,2
					C307,421.8,306.9,419.4,308.1,417.7z"/>
				<path class="st9" d="M298.6,419.8c0.2-0.7,1-1.1,1.7-0.7c0.9,0.5,1.3,1.4,1.8,2.3c0.5,0.9,1,1.8,1.6,2.7
					c1.1,1.9-1.7,3.5-2.9,1.7C299.7,424.3,298,421.8,298.6,419.8z"/>
			</g>
			<g>
				<path class="st9" d="M52.5,571.2c0.3-1.9,3.6-1.5,3.4,0.5c-0.1,0.9-0.2,1.9-0.1,2.8c0.1,1,0.3,1.8-0.2,2.8
					c-0.4,0.9-1.8,1.1-2.5,0.3C51.7,576,52.2,573.1,52.5,571.2z"/>
				<path class="st9" d="M43.2,572c1.1-1.6,3.3-0.6,3,1.2c-0.1,0.8,0.4,1.7,0.7,2.5c0.7,1.9-2.1,3.4-3.4,2
					C42,576.2,42,573.8,43.2,572z"/>
				<path class="st9" d="M33.7,574.2c0.2-0.7,1-1.1,1.7-0.7c0.9,0.5,1.3,1.4,1.8,2.3c0.5,0.9,1,1.8,1.6,2.7c1.1,1.9-1.7,3.5-2.9,1.7
					C34.8,578.7,33.1,576.2,33.7,574.2z"/>
			</g>
			<g>
				<path class="st9" d="M942.2,377.8c1.1-1.6,3.9,0.1,2.9,1.8c-0.5,0.8-0.9,1.6-1.2,2.5c-0.4,1-0.5,1.8-1.4,2.5
					c-0.8,0.7-2.1,0.2-2.4-0.7C939.4,381.9,941.1,379.4,942.2,377.8z"/>
				<path class="st9" d="M933.3,374.7c1.6-1,3.3,0.8,2.2,2.4c-0.5,0.7-0.4,1.7-0.4,2.5c-0.1,2-3.3,2.3-3.9,0.4
					C930.5,378,931.5,375.8,933.3,374.7z"/>
				<path class="st9" d="M923.7,372.8c0.5-0.6,1.4-0.6,1.8,0.1c0.6,0.9,0.6,1.8,0.7,2.8c0.1,1.1,0.2,2.1,0.3,3.2
					c0.2,2.2-2.9,2.5-3.3,0.4C922.9,377.3,922.4,374.3,923.7,372.8z"/>
			</g>
			<g>
				<path class="st9" d="M1067.9,364.3c1.1-1.6,3.9,0.1,2.9,1.8c-0.5,0.8-0.9,1.6-1.2,2.5c-0.4,1-0.5,1.8-1.4,2.5
					c-0.8,0.7-2.1,0.2-2.4-0.7C1065.1,368.4,1066.8,366,1067.9,364.3z"/>
				<path class="st9" d="M1059,361.3c1.6-1,3.3,0.8,2.2,2.4c-0.5,0.7-0.4,1.7-0.4,2.5c-0.1,2-3.3,2.3-3.9,0.4
					C1056.3,364.6,1057.3,362.4,1059,361.3z"/>
				<path class="st9" d="M1049.5,359.3c0.5-0.6,1.4-0.6,1.8,0.1c0.6,0.9,0.6,1.8,0.7,2.8c0.1,1.1,0.2,2.1,0.3,3.2
					c0.2,2.2-2.9,2.5-3.3,0.4C1048.6,363.8,1048.1,360.9,1049.5,359.3z"/>
			</g>
			<g>
				<path class="st9" d="M401.7,628.6c1.5-1.2,3.4,0.4,2.5,2.1c-0.4,0.7-0.1,1.7-0.1,2.6c0.1,2-2.9,2.7-3.8,0.9
					C399.4,632.2,400,629.9,401.7,628.6z"/>
				<path class="st9" d="M391.9,627.9c0.4-0.6,1.3-0.7,1.8-0.2c0.7,0.8,0.8,1.7,1,2.7c0.2,1,0.5,2.1,0.7,3.1
					c0.5,2.1-2.6,2.8-3.2,0.8C391.7,632.5,390.8,629.6,391.9,627.9z"/>
			</g>
			<g>
				<path class="st9" d="M73.1,821.2c1.5-1.2,3.4,0.4,2.5,2.1c-0.4,0.7-0.1,1.7-0.1,2.6c0.1,2-2.9,2.7-3.8,0.9
					C70.8,824.9,71.5,822.6,73.1,821.2z"/>
				<path class="st9" d="M63.4,820.6c0.4-0.6,1.3-0.7,1.8-0.2c0.7,0.8,0.8,1.7,1,2.7c0.2,1,0.5,2.1,0.7,3.1c0.5,2.1-2.6,2.8-3.2,0.8
					C63.2,825.2,62.3,822.3,63.4,820.6z"/>
			</g>
			<g>
				<path class="st9" d="M197.8,899.6c1.5-1.2,3.4,0.4,2.5,2.1c-0.4,0.7-0.1,1.7-0.1,2.6c0.1,2-2.9,2.7-3.8,0.9
					C195.6,903.2,196.2,900.9,197.8,899.6z"/>
				<path class="st9" d="M188.1,898.9c0.4-0.6,1.3-0.7,1.8-0.2c0.7,0.8,0.8,1.7,1,2.7c0.2,1,0.5,2.1,0.7,3.1
					c0.5,2.1-2.6,2.8-3.2,0.8C187.9,903.5,187,900.6,188.1,898.9z"/>
			</g>
			<g>
				<path class="st9" d="M565.6,449c-1.5-1.2-3.4,0.4-2.5,2.1c0.4,0.7,0.1,1.7,0.1,2.6c-0.1,2,2.9,2.7,3.8,0.9
					C567.9,452.6,567.2,450.3,565.6,449z"/>
				<path class="st9" d="M575.3,448.3c-0.4-0.6-1.3-0.7-1.8-0.2c-0.7,0.8-0.8,1.7-1,2.7c-0.2,1-0.5,2.1-0.7,3.1
					c-0.5,2.1,2.6,2.8,3.2,0.8C575.6,452.9,576.5,450,575.3,448.3z"/>
			</g>
			<g>
				<path class="st9" d="M220.7,393.6c-1.5-1.2-3.4,0.4-2.5,2.1c0.4,0.7,0.1,1.7,0.1,2.6c-0.1,2,2.9,2.7,3.8,0.9
					C223,397.2,222.3,394.9,220.7,393.6z"/>
				<path class="st9" d="M230.4,392.9c-0.4-0.6-1.3-0.7-1.8-0.2c-0.7,0.8-0.8,1.7-1,2.7c-0.2,1-0.5,2.1-0.7,3.1
					c-0.5,2.1,2.6,2.8,3.2,0.8C230.7,397.5,231.6,394.6,230.4,392.9z"/>
			</g>
			<g>
				<path class="st9" d="M992.6,537.3c-1.5-1.2-3.4,0.4-2.5,2.1c0.4,0.7,0.1,1.7,0.1,2.6c-0.1,2,2.9,2.7,3.8,0.9
					C994.9,540.9,994.2,538.6,992.6,537.3z"/>
				<path class="st9" d="M1002.3,536.6c-0.4-0.6-1.3-0.7-1.8-0.2c-0.7,0.8-0.8,1.7-1,2.7c-0.2,1-0.5,2.1-0.7,3.1
					c-0.5,2.1,2.6,2.8,3.2,0.8C1002.6,541.2,1003.5,538.3,1002.3,536.6z"/>
			</g>
			<g>
				<path class="st9" d="M577.5,283.7c-1.5-1.2-3.4,0.4-2.5,2.1c0.4,0.7,0.1,1.7,0.1,2.6c-0.1,2,2.9,2.7,3.8,0.9
					C579.8,287.3,579.1,285,577.5,283.7z"/>
				<path class="st9" d="M587.2,283c-0.4-0.6-1.3-0.7-1.8-0.2c-0.7,0.8-0.8,1.7-1,2.7c-0.2,1-0.5,2.1-0.7,3.1
					c-0.5,2.1,2.6,2.8,3.2,0.8C587.5,287.6,588.4,284.7,587.2,283z"/>
			</g>
			<g>
				<path class="st9" d="M1123.2,586.1c-1.5-1.2-3.4,0.4-2.5,2.1c0.4,0.7,0.1,1.7,0.1,2.6c-0.1,2,2.9,2.7,3.8,0.9
					C1125.4,589.7,1124.8,587.4,1123.2,586.1z"/>
				<path class="st9" d="M1132.9,585.4c-0.4-0.6-1.3-0.7-1.8-0.2c-0.7,0.8-0.8,1.7-1,2.7c-0.2,1-0.5,2.1-0.7,3.1
					c-0.5,2.1,2.6,2.8,3.2,0.8C1133.1,590,1134,587.1,1132.9,585.4z"/>
			</g>
			<g>
				<path class="st9" d="M531.8,717.8c-1.5-1.2-3.4,0.4-2.5,2.1c0.4,0.7,0.1,1.7,0.1,2.6c-0.1,2,2.9,2.7,3.8,0.9
					C534.1,721.4,533.4,719.1,531.8,717.8z"/>
				<path class="st9" d="M541.5,717.1c-0.4-0.6-1.3-0.7-1.8-0.2c-0.7,0.8-0.8,1.7-1,2.7c-0.2,1-0.5,2.1-0.7,3.1
					c-0.5,2.1,2.6,2.8,3.2,0.8C541.8,721.7,542.7,718.8,541.5,717.1z"/>
			</g>
			<g>
				<path class="st9" d="M994.9,871.3c-1.5-1.2-3.4,0.4-2.5,2.1c0.4,0.7,0.1,1.7,0.1,2.6c-0.1,2,2.9,2.7,3.8,0.9
					C997.2,875,996.5,872.7,994.9,871.3z"/>
				<path class="st9" d="M1004.6,870.7c-0.4-0.6-1.3-0.7-1.8-0.2c-0.7,0.8-0.8,1.7-1,2.7c-0.2,1-0.5,2.1-0.7,3.1
					c-0.5,2.1,2.6,2.8,3.2,0.8C1004.9,875.3,1005.8,872.4,1004.6,870.7z"/>
			</g>
			<g>
				<path class="st9" d="M835.2,581.7c-1.5-1.2-3.4,0.4-2.5,2.1c0.4,0.7,0.1,1.7,0.1,2.6c-0.1,2,2.9,2.7,3.8,0.9
					C837.4,585.3,836.8,583,835.2,581.7z"/>
				<path class="st9" d="M844.9,581c-0.4-0.6-1.3-0.7-1.8-0.2c-0.7,0.8-0.8,1.7-1,2.7c-0.2,1-0.5,2.1-0.7,3.1
					c-0.5,2.1,2.6,2.8,3.2,0.8C845.1,585.6,846,582.7,844.9,581z"/>
			</g>
			<g>
				<path class="st9" d="M1229.7,676.3c-1.5-1.2-3.4,0.4-2.5,2.1c0.4,0.7,0.1,1.7,0.1,2.6c-0.1,2,2.9,2.7,3.8,0.9
					C1232,680,1231.3,677.7,1229.7,676.3z"/>
				<path class="st9" d="M1239.4,675.7c-0.4-0.6-1.3-0.7-1.8-0.2c-0.7,0.8-0.8,1.7-1,2.7c-0.2,1-0.5,2.1-0.7,3.1
					c-0.5,2.1,2.6,2.8,3.2,0.8C1239.7,680.3,1240.6,677.4,1239.4,675.7z"/>
			</g>
			<g>
				<path class="st9" d="M1110.2,436.5c-1.5-1.2-3.4,0.4-2.5,2.1c0.4,0.7,0.1,1.7,0.1,2.6c-0.1,2,2.9,2.7,3.8,0.9
					C1112.4,440.1,1111.8,437.8,1110.2,436.5z"/>
				<path class="st9" d="M1119.9,435.8c-0.4-0.6-1.3-0.7-1.8-0.2c-0.7,0.8-0.8,1.7-1,2.7c-0.2,1-0.5,2.1-0.7,3.1
					c-0.5,2.1,2.6,2.8,3.2,0.8C1120.1,440.4,1121,437.5,1119.9,435.8z"/>
			</g>
			<g>
				<path class="st9" d="M801,820.7c1.5-1.2,3.4,0.4,2.5,2.1c-0.4,0.7-0.1,1.7-0.1,2.6c0.1,2-2.9,2.7-3.8,0.9
					C798.7,824.3,799.4,822.1,801,820.7z"/>
				<path class="st9" d="M791.3,820c0.4-0.6,1.3-0.7,1.8-0.2c0.7,0.8,0.8,1.7,1,2.7c0.2,1,0.5,2.1,0.7,3.1c0.5,2.1-2.6,2.8-3.2,0.8
					C791,824.6,790.1,821.7,791.3,820z"/>
			</g>
			<g>
				<path class="st9" d="M379.5,920.3c1.5-1.2,3.4,0.4,2.5,2.1c-0.4,0.7-0.1,1.7-0.1,2.6c0.1,2-2.9,2.7-3.8,0.9
					C377.2,923.9,377.9,921.7,379.5,920.3z"/>
				<path class="st9" d="M369.7,919.6c0.4-0.6,1.3-0.7,1.8-0.2c0.7,0.8,0.8,1.7,1,2.7c0.2,1,0.5,2.1,0.7,3.1
					c0.5,2.1-2.6,2.8-3.2,0.8C369.5,924.2,368.6,921.3,369.7,919.6z"/>
			</g>
			<g>
				<g>
					<path class="st9" d="M713.9,686.9c0.7-1.8,3.9-0.7,3.2,1.1c-0.3,0.9-0.5,1.8-0.7,2.7c-0.2,1-0.1,1.9-0.8,2.7
						c-0.6,0.8-2,0.7-2.5-0.2C712.1,691.5,713.2,688.7,713.9,686.9z"/>
					<path class="st9" d="M704.7,677.2c1.4-1.3,3.4,0.1,2.7,1.8c-0.3,0.8-0.1,10.4,0,11.2c0.3,2-2.7,2.9-3.7,1.2
						C702.6,689.6,703.2,678.6,704.7,677.2z"/>
					<path class="st9" d="M694.8,686c0.4-0.6,1.2-0.9,1.8-0.3c0.8,0.7,1,1.6,1.3,2.6c0.3,1,0.6,2,1,3c0.7,2.1-2.3,3-3.2,1.1
						C695,690.6,693.8,687.8,694.8,686z"/>
				</g>
				<path class="st10" d="M719.3,669.2c-1.3-4-4.7-5.7-8.3-5.3c-2.9-1.2-5.7-2-8.8-0.6c-0.7,0.3-1.4,0.8-2,1.3
					c-0.3,0.3-1.4,0.9-0.9,0.7c-1.6,0.7-3,1-4.2,2.7c-2,3-1,6.9,1.8,8.8c2,1.3,4,1.6,5.9,1.3c2.4,1.2,5.6,1.2,8.1,0.9
					C715.7,678.3,721.3,675.4,719.3,669.2z"/>
				<path class="st11" d="M711.4,668.4c-0.8-0.6-1.8-0.9-2.8-1c-0.4,0-0.8,0.1-1.2,0.1c0,0-0.4,0.1-0.6,0.1c-0.1,0-0.3,0-0.4,0
					c-0.5,0-0.9,0.1-1.4,0.2c-0.8,0.1-1.5,0.2-2.1,0.6c-1.2,0.7-2,1.9-1.6,3.2c0.5,1.2,1.7,2,3.3,2.1c0.1,0,0.3,0,0.4,0
					c0.2,0,0.5,0,0.7,0.1c0.2,0,0.4,0.1,0.2,0.1c0.4,0.1,0.9,0.2,1.3,0.2c1.5,0.1,3.2,0,4.3-1C712.9,671.8,713,669.6,711.4,668.4z"
					/>
			</g>
			<g>
				<g>
					<path class="st9" d="M1025.1,765.6c0.7-1.8,3.9-0.7,3.2,1.1c-0.3,0.9-0.5,1.8-0.7,2.7c-0.2,1-0.1,1.9-0.8,2.7
						c-0.6,0.8-2,0.7-2.5-0.2C1023.2,770.2,1024.3,767.5,1025.1,765.6z"/>
					<path class="st9" d="M1015.8,755.9c1.4-1.3,3.4,0.1,2.7,1.8c-0.3,0.8-0.1,10.4,0,11.2c0.3,2-2.7,2.9-3.7,1.2
						C1013.8,768.4,1014.3,757.4,1015.8,755.9z"/>
					<path class="st9" d="M1006,764.7c0.4-0.6,1.2-0.9,1.8-0.3c0.8,0.7,1,1.6,1.3,2.6c0.3,1,0.6,2,1,3c0.7,2.1-2.3,3-3.2,1.1
						C1006.1,769.3,1005,766.5,1006,764.7z"/>
				</g>
				<path class="st10" d="M1030.5,747.9c-1.3-4-4.7-5.7-8.3-5.3c-2.9-1.2-5.7-2-8.8-0.6c-0.7,0.3-1.4,0.8-2,1.3
					c-0.3,0.3-1.4,0.9-0.9,0.7c-1.6,0.7-3,1-4.2,2.7c-2,3-1,6.9,1.8,8.8c2,1.3,4,1.6,5.9,1.3c2.4,1.2,5.6,1.2,8.1,0.9
					C1026.8,757.1,1032.4,754.1,1030.5,747.9z"/>
				<path class="st11" d="M1022.5,747.2c-0.8-0.6-1.8-0.9-2.8-1c-0.4,0-0.8,0.1-1.2,0.1c0,0-0.4,0.1-0.6,0.1c-0.1,0-0.3,0-0.4,0
					c-0.5,0-0.9,0.1-1.4,0.2c-0.8,0.1-1.5,0.2-2.1,0.6c-1.2,0.7-2,1.9-1.6,3.2c0.5,1.2,1.7,2,3.3,2.1c0.1,0,0.3,0,0.4,0
					c0.2,0,0.5,0,0.7,0.1c0.2,0,0.4,0.1,0.2,0.1c0.4,0.1,0.9,0.2,1.3,0.2c1.5,0.1,3.2,0,4.3-1
					C1024.1,750.5,1024.1,748.4,1022.5,747.2z"/>
			</g>
			<g>
				<g>
					<path class="st9" d="M376.9,523.5c0.7-1.8,3.9-0.7,3.2,1.1c-0.3,0.9-0.5,1.8-0.7,2.7c-0.2,1-0.1,1.9-0.8,2.7
						c-0.6,0.8-2,0.7-2.5-0.2C375.1,528.1,376.2,525.3,376.9,523.5z"/>
					<path class="st9" d="M367.7,513.7c1.4-1.3,3.4,0.1,2.7,1.8c-0.3,0.8-0.1,10.4,0,11.2c0.3,2-2.7,2.9-3.7,1.2
						C365.6,526.2,366.2,515.2,367.7,513.7z"/>
					<path class="st9" d="M357.8,522.5c0.4-0.6,1.2-0.9,1.8-0.3c0.8,0.7,1,1.6,1.3,2.6c0.3,1,0.6,2,1,3c0.7,2.1-2.3,3-3.2,1.1
						C358,527.2,356.8,524.3,357.8,522.5z"/>
				</g>
				<path class="st10" d="M382.3,505.7c-1.3-4-4.7-5.7-8.3-5.3c-2.9-1.2-5.7-2-8.8-0.6c-0.7,0.3-1.4,0.8-2,1.3
					c-0.3,0.3-1.4,0.9-0.9,0.7c-1.6,0.7-3,1-4.2,2.7c-2,3-1,6.9,1.8,8.8c2,1.3,4,1.6,5.9,1.3c2.4,1.2,5.6,1.2,8.1,0.9
					C378.7,514.9,384.3,512,382.3,505.7z"/>
				<path class="st11" d="M374.4,505c-0.8-0.6-1.8-0.9-2.8-1c-0.4,0-0.8,0.1-1.2,0.1c0,0-0.4,0.1-0.6,0.1c-0.1,0-0.3,0-0.4,0
					c-0.5,0-0.9,0.1-1.4,0.2c-0.8,0.1-1.5,0.2-2.1,0.6c-1.2,0.7-2,1.9-1.6,3.2c0.5,1.2,1.7,2,3.3,2.1c0.1,0,0.3,0,0.4,0
					c0.2,0,0.5,0,0.7,0.1c0.2,0,0.4,0.1,0.2,0.1c0.4,0.1,0.9,0.2,1.3,0.2c1.5,0.1,3.2,0,4.3-1C375.9,508.4,376,506.2,374.4,505z"/>
			</g>
			<g>
				<g>
					<path class="st9" d="M157,761c0.7-1.8,3.9-0.7,3.2,1.1c-0.3,0.9-0.5,1.8-0.7,2.7c-0.2,1-0.1,1.9-0.8,2.7
						c-0.6,0.8-2,0.7-2.5-0.2C155.2,765.6,156.3,762.8,157,761z"/>
					<path class="st9" d="M147.8,751.3c1.4-1.3,3.4,0.1,2.7,1.8c-0.3,0.8-0.1,10.4,0,11.2c0.3,2-2.7,2.9-3.7,1.2
						C145.7,763.7,146.3,752.7,147.8,751.3z"/>
					<path class="st9" d="M137.9,760.1c0.4-0.6,1.2-0.9,1.8-0.3c0.8,0.7,1,1.6,1.3,2.6c0.3,1,0.6,2,1,3c0.7,2.1-2.3,3-3.2,1.1
						C138.1,764.7,136.9,761.9,137.9,760.1z"/>
				</g>
				<path class="st10" d="M162.4,743.3c-1.3-4-4.7-5.7-8.3-5.3c-2.9-1.2-5.7-2-8.8-0.6c-0.7,0.3-1.4,0.8-2,1.3
					c-0.3,0.3-1.4,0.9-0.9,0.7c-1.6,0.7-3,1-4.2,2.7c-2,3-1,6.9,1.8,8.8c2,1.3,4,1.6,5.9,1.3c2.4,1.2,5.6,1.2,8.1,0.9
					C158.8,752.4,164.4,749.5,162.4,743.3z"/>
				<path class="st11" d="M154.5,742.5c-0.8-0.6-1.8-0.9-2.8-1c-0.4,0-0.8,0.1-1.2,0.1c0,0-0.4,0.1-0.6,0.1c-0.1,0-0.3,0-0.4,0
					c-0.5,0-0.9,0.1-1.4,0.2c-0.8,0.1-1.5,0.2-2.1,0.6c-1.2,0.7-2,1.9-1.6,3.2c0.5,1.2,1.7,2,3.3,2.1c0.1,0,0.3,0,0.4,0
					c0.2,0,0.5,0,0.7,0.1c0.2,0,0.4,0.1,0.2,0.1c0.4,0.1,0.9,0.2,1.3,0.2c1.5,0.1,3.2,0,4.3-1C156,745.9,156.1,743.7,154.5,742.5z"
					/>
			</g>
			<g>
				<g>
					<path class="st9" d="M80.1,401c0.7-1.8,3.9-0.7,3.2,1.1c-0.3,0.9-0.5,1.8-0.7,2.7c-0.2,1-0.1,1.9-0.8,2.7
						c-0.6,0.8-2,0.7-2.5-0.2C78.3,405.6,79.4,402.8,80.1,401z"/>
					<path class="st9" d="M70.9,391.3c1.4-1.3,3.4,0.1,2.7,1.8c-0.3,0.8-0.1,10.4,0,11.2c0.3,2-2.7,2.9-3.7,1.2
						C68.8,403.8,69.4,392.8,70.9,391.3z"/>
					<path class="st9" d="M61,400.1c0.4-0.6,1.2-0.9,1.8-0.3c0.8,0.7,1,1.6,1.3,2.6c0.3,1,0.6,2,1,3c0.7,2.1-2.3,3-3.2,1.1
						C61.2,404.7,60,401.9,61,400.1z"/>
				</g>
				<path class="st10" d="M85.5,383.3c-1.3-4-4.7-5.7-8.3-5.3c-2.9-1.2-5.7-2-8.8-0.6c-0.7,0.3-1.4,0.8-2,1.3
					c-0.3,0.3-1.4,0.9-0.9,0.7c-1.6,0.7-3,1-4.2,2.7c-2,3-1,6.9,1.8,8.8c2,1.3,4,1.6,5.9,1.3c2.4,1.2,5.6,1.2,8.1,0.9
					C81.9,392.4,87.5,389.5,85.5,383.3z"/>
				<path class="st11" d="M77.6,382.6c-0.8-0.6-1.8-0.9-2.8-1c-0.4,0-0.8,0.1-1.2,0.1c0,0-0.4,0.1-0.6,0.1c-0.1,0-0.3,0-0.4,0
					c-0.5,0-0.9,0.1-1.4,0.2c-0.8,0.1-1.5,0.2-2.1,0.6c-1.2,0.7-2,1.9-1.6,3.2c0.5,1.2,1.7,2,3.3,2.1c0.1,0,0.3,0,0.4,0
					c0.2,0,0.5,0,0.7,0.1c0.2,0,0.4,0.1,0.2,0.1c0.4,0.1,0.9,0.2,1.3,0.2c1.5,0.1,3.2,0,4.3-1C79.1,385.9,79.2,383.8,77.6,382.6z"/>
			</g>
			<g>
				<g>
					<path class="st9" d="M865.5,345.2c-0.7-1.5-3.9-0.6-3.2,0.9c0.3,0.7,0.5,1.4,0.7,2.2c0.2,0.8,0.1,1.5,0.8,2.2
						c0.6,0.7,2,0.5,2.5-0.1C867.4,348.9,866.2,346.7,865.5,345.2z"/>
					<path class="st9" d="M874.7,337.3c-1.4-1.1-3.4,0.1-2.7,1.5c0.3,0.6,0.1,8.4,0,9.1c-0.3,1.6,2.7,2.4,3.7,1
						C876.8,347.4,876.2,338.5,874.7,337.3z"/>
					<path class="st9" d="M884.6,344.5c-0.4-0.5-1.2-0.7-1.8-0.3c-0.8,0.6-1,1.3-1.3,2.1c-0.3,0.8-0.6,1.6-1,2.4
						c-0.7,1.7,2.3,2.5,3.2,0.9C884.5,348.2,885.6,345.9,884.6,344.5z"/>
				</g>
				<path class="st10" d="M860.1,330.8c1.3-3.3,4.7-4.6,8.3-4.3c2.9-1,5.7-1.6,8.8-0.5c0.7,0.3,1.4,0.6,2,1.1
					c0.3,0.2,1.4,0.8,0.9,0.6c1.6,0.6,3,0.8,4.2,2.2c2,2.4,1,5.6-1.8,7.1c-2,1.1-4,1.3-5.9,1c-2.4,1-5.6,1-8.1,0.8
					C863.8,338.2,858.1,335.9,860.1,330.8z"/>
				<path class="st11" d="M868,330.2c0.8-0.5,1.8-0.8,2.8-0.8c0.4,0,0.8,0.1,1.2,0.1c0,0,0.4,0,0.6,0.1c0.1,0,0.3,0,0.4,0
					c0.5,0,0.9,0.1,1.4,0.1c0.8,0.1,1.5,0.2,2.1,0.5c1.2,0.6,2,1.6,1.6,2.6c-0.5,1-1.7,1.6-3.3,1.7c-0.1,0-0.3,0-0.4,0
					c-0.2,0-0.5,0-0.7,0c-0.2,0-0.4,0.1-0.2,0c-0.4,0.1-0.9,0.1-1.3,0.2c-1.5,0.1-3.2,0-4.3-0.8C866.5,333,866.4,331.2,868,330.2z"
					/>
			</g>
			<g>
				<g>
					<path class="st9" d="M1224.9,405.6c-0.7-1.5-3.9-0.6-3.2,0.9c0.3,0.7,0.5,1.4,0.7,2.2c0.2,0.8,0.1,1.5,0.8,2.2
						c0.6,0.7,2,0.5,2.5-0.1C1226.8,409.4,1225.6,407.1,1224.9,405.6z"/>
					<path class="st9" d="M1234.1,397.7c-1.4-1.1-3.4,0.1-2.7,1.5c0.3,0.6,0.1,8.4,0,9.1c-0.3,1.6,2.7,2.4,3.7,1
						C1236.2,407.9,1235.6,398.9,1234.1,397.7z"/>
					<path class="st9" d="M1244,404.9c-0.4-0.5-1.2-0.7-1.8-0.3c-0.8,0.6-1,1.3-1.3,2.1c-0.3,0.8-0.6,1.6-1,2.4
						c-0.7,1.7,2.3,2.5,3.2,0.9C1243.8,408.6,1245,406.3,1244,404.9z"/>
				</g>
				<path class="st10" d="M1219.5,391.3c1.3-3.3,4.7-4.6,8.3-4.3c2.9-1,5.7-1.6,8.8-0.5c0.7,0.3,1.4,0.6,2,1.1
					c0.3,0.2,1.4,0.8,0.9,0.6c1.6,0.6,3,0.8,4.2,2.2c2,2.4,1,5.6-1.8,7.1c-2,1.1-4,1.3-5.9,1c-2.4,1-5.6,1-8.1,0.8
					C1223.1,398.7,1217.5,396.3,1219.5,391.3z"/>
				<path class="st11" d="M1227.4,390.7c0.8-0.5,1.8-0.8,2.8-0.8c0.4,0,0.8,0.1,1.2,0.1c0,0,0.4,0,0.6,0.1c0.1,0,0.3,0,0.4,0
					c0.5,0,0.9,0.1,1.4,0.1c0.8,0.1,1.5,0.2,2.1,0.5c1.2,0.6,2,1.6,1.6,2.6c-0.5,1-1.7,1.6-3.3,1.7c-0.1,0-0.3,0-0.4,0
					c-0.2,0-0.5,0-0.7,0c-0.2,0-0.4,0.1-0.2,0c-0.4,0.1-0.9,0.1-1.3,0.2c-1.5,0.1-3.2,0-4.3-0.8
					C1225.9,393.4,1225.8,391.6,1227.4,390.7z"/>
			</g>
			<g>
				<g>
					<path class="st9" d="M515.7,953.1c-0.7-1.5-3.9-0.6-3.2,0.9c0.3,0.7,0.5,1.4,0.7,2.2c0.2,0.8,0.1,1.5,0.8,2.2
						c0.6,0.7,2,0.5,2.5-0.1C517.6,956.8,516.4,954.6,515.7,953.1z"/>
					<path class="st9" d="M524.9,945.2c-1.4-1.1-3.4,0.1-2.7,1.5c0.3,0.6,0.1,8.4,0,9.1c-0.3,1.6,2.7,2.4,3.7,1
						C527,955.3,526.4,946.4,524.9,945.2z"/>
					<path class="st9" d="M534.8,952.3c-0.4-0.5-1.2-0.7-1.8-0.3c-0.8,0.6-1,1.3-1.3,2.1c-0.3,0.8-0.6,1.6-1,2.4
						c-0.7,1.7,2.3,2.5,3.2,0.9C534.6,956.1,535.8,953.8,534.8,952.3z"/>
				</g>
				<path class="st10" d="M510.3,938.7c1.3-3.3,4.7-4.6,8.3-4.3c2.9-1,5.7-1.6,8.8-0.5c0.7,0.3,1.4,0.6,2,1.1
					c0.3,0.2,1.4,0.8,0.9,0.6c1.6,0.6,3,0.8,4.2,2.2c2,2.4,1,5.6-1.8,7.1c-2,1.1-4,1.3-5.9,1c-2.4,1-5.6,1-8.1,0.8
					C513.9,946.1,508.3,943.8,510.3,938.7z"/>
				<path class="st11" d="M518.2,938.1c0.8-0.5,1.8-0.8,2.8-0.8c0.4,0,0.8,0.1,1.2,0.1c0,0,0.4,0,0.6,0.1c0.1,0,0.3,0,0.4,0
					c0.5,0,0.9,0.1,1.4,0.1c0.8,0.1,1.5,0.2,2.1,0.5c1.2,0.6,2,1.6,1.6,2.6c-0.5,1-1.7,1.6-3.3,1.7c-0.1,0-0.3,0-0.4,0
					c-0.2,0-0.5,0-0.7,0c-0.2,0-0.4,0.1-0.2,0c-0.4,0.1-0.9,0.1-1.3,0.2c-1.5,0.1-3.2,0-4.3-0.8
					C516.7,940.9,516.6,939.1,518.2,938.1z"/>
			</g>
			<g>
				<g>
					<path class="st9" d="M926,899.7c-0.7-1.5-3.9-0.6-3.2,0.9c0.3,0.7,0.5,1.4,0.7,2.2c0.2,0.8,0.1,1.5,0.8,2.2
						c0.6,0.7,2,0.5,2.5-0.1C927.8,903.4,926.7,901.2,926,899.7z"/>
					<path class="st9" d="M935.2,891.8c-1.4-1.1-3.4,0.1-2.7,1.5c0.3,0.6,0.1,8.4,0,9.1c-0.3,1.6,2.7,2.4,3.7,1
						C937.3,901.9,936.7,893,935.2,891.8z"/>
					<path class="st9" d="M945.1,899c-0.4-0.5-1.2-0.7-1.8-0.3c-0.8,0.6-1,1.3-1.3,2.1c-0.3,0.8-0.6,1.6-1,2.4
						c-0.7,1.7,2.3,2.5,3.2,0.9C944.9,902.7,946.1,900.4,945.1,899z"/>
				</g>
				<path class="st10" d="M920.6,885.3c1.3-3.3,4.7-4.6,8.3-4.3c2.9-1,5.7-1.6,8.8-0.5c0.7,0.3,1.4,0.6,2,1.1
					c0.3,0.2,1.4,0.8,0.9,0.6c1.6,0.6,3,0.8,4.2,2.2c2,2.4,1,5.6-1.8,7.1c-2,1.1-4,1.3-5.9,1c-2.4,1-5.6,1-8.1,0.8
					C924.2,892.8,918.6,890.4,920.6,885.3z"/>
				<path class="st11" d="M928.5,884.7c0.8-0.5,1.8-0.8,2.8-0.8c0.4,0,0.8,0.1,1.2,0.1c0,0,0.4,0,0.6,0.1c0.1,0,0.3,0,0.4,0
					c0.5,0,0.9,0.1,1.4,0.1c0.8,0.1,1.5,0.2,2.1,0.5c1.2,0.6,2,1.6,1.6,2.6c-0.5,1-1.7,1.6-3.3,1.7c-0.1,0-0.3,0-0.4,0
					c-0.2,0-0.5,0-0.7,0c-0.2,0-0.4,0.1-0.2,0c-0.4,0.1-0.9,0.1-1.3,0.2c-1.5,0.1-3.2,0-4.3-0.8C927,887.5,926.9,885.7,928.5,884.7z
					"/>
			</g>
			<g>
				<g>
					<path class="st9" d="M1160,974c-0.7-1.5-3.9-0.6-3.2,0.9c0.3,0.7,0.5,1.4,0.7,2.2c0.2,0.8,0.1,1.5,0.8,2.2
						c0.6,0.7,2,0.5,2.5-0.1C1161.8,977.7,1160.7,975.5,1160,974z"/>
					<path class="st9" d="M1169.2,966.1c-1.4-1.1-3.4,0.1-2.7,1.5c0.3,0.6,0.1,8.4,0,9.1c-0.3,1.6,2.7,2.4,3.7,1
						C1171.3,976.2,1170.7,967.3,1169.2,966.1z"/>
					<path class="st9" d="M1179.1,973.3c-0.4-0.5-1.2-0.7-1.8-0.3c-0.8,0.6-1,1.3-1.3,2.1c-0.3,0.8-0.6,1.6-1,2.4
						c-0.7,1.7,2.3,2.5,3.2,0.9C1178.9,977,1180.1,974.7,1179.1,973.3z"/>
				</g>
				<path class="st10" d="M1154.6,959.6c1.3-3.3,4.7-4.6,8.3-4.3c2.9-1,5.7-1.6,8.8-0.5c0.7,0.3,1.4,0.6,2,1.1
					c0.3,0.2,1.4,0.8,0.9,0.6c1.6,0.6,3,0.8,4.2,2.2c2,2.4,1,5.6-1.8,7.1c-2,1.1-4,1.3-5.9,1c-2.4,1-5.6,1-8.1,0.8
					C1158.2,967.1,1152.6,964.7,1154.6,959.6z"/>
				<path class="st11" d="M1162.5,959c0.8-0.5,1.8-0.8,2.8-0.8c0.4,0,0.8,0.1,1.2,0.1c0,0,0.4,0,0.6,0.1c0.1,0,0.3,0,0.4,0
					c0.5,0,0.9,0.1,1.4,0.1c0.8,0.1,1.5,0.2,2.1,0.5c1.2,0.6,2,1.6,1.6,2.6c-0.5,1-1.7,1.6-3.3,1.7c-0.1,0-0.3,0-0.4,0
					c-0.2,0-0.5,0-0.7,0c-0.2,0-0.4,0.1-0.2,0c-0.4,0.1-0.9,0.1-1.3,0.2c-1.5,0.1-3.2,0-4.3-0.8C1161,961.8,1160.9,960,1162.5,959z"
					/>
			</g>
		</g>
		<g>
			<path class="st12" d="M837.5,232.6c1.4-6.4,5.6-11.2,8-17.1c3.1-7.8,4.8-16.5,8.8-23.7c4.3-7.7,11.9-22.6,18.6-27.2
				c13.2-9.2,23.5-4,38-9.8c20.2-8,35.1,9.1,43.8,24.4c10.4,18.3,8.5,42.8,11.3,64.9c1.6,12.1,8.6,32.5,3.6,44.7
				c-1.2,3-6.5,5.1-8.9,6.7c-14.3,9.3-35.9,9.6-61.2,5.5c-2.6-0.4-61-6.2-67.1-18.1C825.6,269.8,833.6,250.3,837.5,232.6z"/>
			<path class="st13" d="M966.1,244.2c-2.8-22.1-0.9-46.5-11.3-64.9c-5.3-9.3-12.9-19.3-22.6-23.9c4.7,8,1.8,16.9,3,27.2
				c1.1,8.8,7,17.8,8.8,26.4c1.8,8.5,4.4,17.1,3.5,26c-1,9.4-5,16.6-4.7,26.5c0.3,9.9,0.6,19.9,0.5,29.8c0,3.8-0.6,7.5-1.6,11.1
				c7.2-1.2,13.7-3.4,19-6.9c2.5-1.6,7.7-3.7,8.9-6.7C974.7,276.7,967.6,256.3,966.1,244.2z"/>
			<path class="st14" d="M947.5,213.3c0-0.3-0.1-0.6-0.3-0.8c0,0,0,0,0,0c0.1-0.6-0.1-1.4-0.5-1.7c-0.9-0.5-1.7-0.5-2.6,0.1
				c-0.5,0.3-0.6,1-0.5,1.6c-0.3,0.6-0.6,1.2-1,1.7c-0.6,1,0.4,2.6,1.3,2.2c0.4-0.2,0.9-0.4,1.3-0.6c0.1,0.1,0.3,0.2,0.5,0.1
				c0.2,0,0.3,0,0.5-0.1c0,0.1,0,0.2,0,0.3l0,0.2c0,1.6,1.9,1.3,1.7-0.3c0-0.1,0-0.2,0-0.2c0-0.2-0.1-0.3-0.2-0.4
				C948.1,214.8,948.1,213.7,947.5,213.3z"/>
			<g>
				<path class="st15" d="M954.7,179.3c-8.7-15.3-23.6-32.4-43.8-24.4c-14.6,5.8-24.8,0.6-38,9.8c-2,1.4-4.1,3.7-6.1,6.4
					c0.8,0,1.6-0.1,2.5-1c1.1-1.2,1.7-2.4,3.2-2.7c1.1-0.2,2.2,0,3.2,0.4c0.6-0.3,0.6,0.2,3.1-0.4c0.9-0.2,1.9-0.4,2.9-0.5
					c0.8,0,1.6-0.1,2.4-0.3c0.2,0.4,0.5,0.8,1,0.7c0.9,0,1.8-0.2,2.7-0.4c0.4-0.1,1.3-0.6,1.9-0.8c0.2,0.5,0.5,1,1.1,1.2
					c0.9,0.4,2.5-1,3-0.6c0.4,0.4,1,0.2,1.3-0.2c0.7-0.3,1.3-0.7,2-1c0.3,0,0.5-0.2,0.6-0.4c1.7,0,3.5,0.1,5.1,0.3
					c0.7,0.1,1.4,0.2,2.1,0.4c0.1,0,0.1,0,0.2,0c0.2,0.1,0.4,0.2,0.6,0.2c-1.2,2.6,2.8,3.5,5.3,3.7c0.3,0.2,0.6,0.4,1,0.6
					c-0.3,0.7-0.2,1.8,0.4,2.2c0.5,0.4,0.3,1.6,0.4,2.2c0.1,0.5,0.4,0.9,0.6,1.3c0.6,0.7,1.4,0.9,2.1,0.6c0,0,0,0,0,0
					c-0.1,0.3-0.2,0.7-0.1,1c0.3,1.7-0.2,4.2,0.3,5.7c0.1,0.2,0.4,0.8,0.5,1c0,0-0.1,0.1-0.3,0.8c-0.1,0.4-0.3,0.6-0.4,1.1
					c-0.1,1.2,0.6,2.7,0.8,3.7c0.3,1.8,0.4,3.1,1.1,4.3c-0.2,1.2,0.7,2.3,1.7,2c0.2-0.1,0.4-0.1,0.6-0.2c0.6-0.2,1-1.2,1-2
					c0.7-1.2,1.4-2.6,1.5-3.9c0.3-2.4-0.7-2.1,1-3.6c0.4-0.4,2-2.3,2.6-2.7c-0.1,0.3,0.8,1.4,0.7,1.3c0.7,0.8,1.6,0.9,2.5,0.8
					c0.4,1.2,0.8,2.3,1.2,3.4c0,0.6,0,1.1,0.2,1.7c0.6,1.6,1.6,2.2,1.9,4.2c0.2,1.1-0.1,2,0.5,3.1c0.5,0.9,1.3,1.2,1.9,1.7
					c0.6,0.4,1.1,0.9,1.6,1.4c0.1,0.2,0.2,0.4,0.2,0.6c0.1,0,0.2,0,0.3,0c0.5,0.5,0.9,1.1,1.4,1.7c0.6,0.9,1,1.8,1.8,2.4
					c0.3,0.2,1,0.3,1.6,0.4c0.4,0.3,0.8,0.6,1.2,0.8c0,0,0,0,0.1,0c0.1,0,0.2,0,0.4,0c0.9,0.6,2.2-0.7,1.9-2.1
					c0.3-0.4,0.6-0.8,1-1.2c0-0.6,0-1.2,0.1-1.9c-0.1-0.2-0.2-0.3-0.3-0.5c0-0.3-0.1-0.7-0.3-1c-0.3-0.4-0.7-0.8-1.1-1
					c-0.1-0.2-0.3-0.4-0.4-0.6c-0.1,0.1-0.3,0.2-0.4,0.3c-0.5-0.1-1.1-0.2-1.2-0.8c0-0.2,0.1-0.8,0.1-1c0-0.3-0.1-0.5-0.3-0.8
					c-0.3-0.8-0.6-1.3-0.8-2c0-0.3,0.1-0.5,0.1-0.8c-1.4-4.1-1-8.5-1.2-12.9c0-0.3,0-0.5,0.1-0.8c0.2-0.1,0.3-0.1,0.5-0.2
					c0.7-0.3,1.4-0.3,2.1-0.3c0.1,0,0.1,0,0.1,0c0,0,0,0,0.1,0c0.7-0.1,1.5-0.3,2.1,0.4c0.2,0.2,0.2,0.7,0.4,1
					c0.4,0.7,0.9,0.9,1.6,1c1.8,0.4,3.4,1.3,5.2,1.7c0.4,0.6,0.8,1.3,1.2,1.9c0.8,1.3,1.4,2,2.7,2.1c0.6,0,1-0.6,1.1-1.3
					c0.3,0.1,0.6,0.1,0.9,0.2C957.3,184.4,956.2,181.8,954.7,179.3z"/>
			</g>
			<path class="st6" d="M878.9,292.1c-3.8,0.1-4.8,1.6-8.4,3.4c-1.5-0.7-3.1-4.7-4.6-7.5c-1.6,0.7-6.3,2.6-7.1,4
				c-1.6-2-3.7-4.8-3.7-7.4c-1.4,0.6-6.4,3.7-8.2,5.6c-1.5-0.7-2.3-4.2-2.3-7.8c-1.5,1.2-12.5,5.3-12.4,6.5
				c6.8,9.7,45.8,11.4,45.7,10.6C878,296,878.9,295.7,878.9,292.1z"/>
			<path class="st6" d="M944.2,289.6c-2.7,1-5.1,2.4-7.5,4.2c-0.1-0.7-0.2-1.4-0.3-2.2c-0.1-0.9-0.9-1.3-1.5-1.1
				c-2.2,0.7-4.1,1.7-6,3.2c-0.3-2.1-0.6-4.1-1-6.2c-0.2-0.9-0.9-1.2-1.5-0.8c-3.7,2.7-7.1,5.6-9,10.5c-3.5-3.4-7.2-6-11.4-7.9
				c-0.6-0.3-1,0.5-0.9,1.2c0.4,4.2,1.3,8.3,2.7,12.1c-0.2,0.9,0.1,1.9,0.9,2.3c0,0,0,0,0.1,0c0.3,0.8,0.7,1.5,1.1,2.2
				c0.5,0.8,1.4,0.1,1.1-0.8c-0.1-0.2-0.2-0.4-0.3-0.6c10.4,3.8,21.8,1,32.3-0.2c0.7-0.1,1.3-0.7,1.3-1.7c-0.1-4.5,1.8-8.2,1.4-12.7
				C945.7,290.1,945.1,289.3,944.2,289.6z"/>
		</g>
	</g>
</g>
<g id="邊線" class="st69">
</g>
</svg>
