<?xml version="1.0" encoding="utf-8"?>
<!-- Generator: Adobe Illustrator 21.0.0, SVG Export Plug-In . SVG Version: 6.00 Build 0)  -->
<svg version="1.1" xmlns="http://www.w3.org/2000/svg" xmlns:xlink="http://www.w3.org/1999/xlink" x="0px" y="0px"
	 viewBox="0 0 38 38" style="enable-background:new 0 0 38 38;" xml:space="preserve">
<style type="text/css">
	.st0{fill:url(#SVGID_1_);}
	.st1{fill:#FFFFFF;}
	.st2{fill:none;}
	.st3{fill:#E8FAFC;}
	.st4{fill:#ABE080;}
	.st5{fill:#91D66B;}
	.st6{fill:#6DB564;}
	.st7{fill:#449469;}
	.st8{fill:#4FA159;}
	.st9{fill:#338F68;}
	.st10{fill:#D99E9E;}
	.st11{fill:#F2DFDF;}
	.st12{fill:#CAD2D9;}
	.st13{fill:#B0B7BD;}
	.st14{fill:#6AA657;}
	.st15{fill:#67B55D;}
	.st16{fill:#538F57;}
	.st17{fill:#69483D;}
	.st18{fill:#4D8046;}
	.st19{clip-path:url(#SVGID_3_);fill:#4D8046;}
	.st20{clip-path:url(#SVGID_3_);}
	.st21{fill:none;stroke:#633730;stroke-width:8;stroke-linecap:round;stroke-linejoin:round;stroke-miterlimit:10;}
	.st22{fill:#FFDED6;}
	.st23{fill:#F2C4B8;}
	.st24{fill:#FFB2AB;}
	.st25{fill:#FFF2F2;}
	.st26{fill:#FFA9A1;}
	.st27{fill:#DB7167;}
	.st28{fill:#EB7259;}
	.st29{fill:none;stroke:#633730;stroke-width:2;stroke-linecap:round;stroke-linejoin:round;stroke-miterlimit:10;}
	.st30{fill:#633730;}
	.st31{fill:none;stroke:#633730;stroke-width:4;stroke-linecap:round;stroke-linejoin:round;stroke-miterlimit:10;}
	.st32{clip-path:url(#SVGID_5_);fill:#4D8046;}
	.st33{clip-path:url(#SVGID_5_);}
	.st34{clip-path:url(#SVGID_7_);fill:#4D8046;}
	.st35{clip-path:url(#SVGID_7_);}
	.st36{clip-path:url(#SVGID_9_);fill:#4D8046;}
	.st37{clip-path:url(#SVGID_9_);}
	.st38{clip-path:url(#SVGID_11_);}
	.st39{fill:#8AA7E6;}
	.st40{fill:#FCC64C;}
	.st41{fill:#FF8C82;}
	.st42{opacity:0.77;fill:#FFF2F2;}
	.st43{fill:#FF9D94;}
	.st44{fill:#6886C4;}
	.st45{fill:#CC9D33;}
	.st46{clip-path:url(#SVGID_13_);}
	.st47{clip-path:url(#SVGID_15_);}
	.st48{clip-path:url(#SVGID_17_);}
	.st49{clip-path:url(#SVGID_19_);fill:#4D8046;}
	.st50{clip-path:url(#SVGID_19_);}
	.st51{clip-path:url(#SVGID_21_);}
	.st52{clip-path:url(#SVGID_23_);}
	.st53{clip-path:url(#SVGID_25_);}
	.st54{clip-path:url(#SVGID_27_);}
	.st55{clip-path:url(#SVGID_29_);}
	.st56{clip-path:url(#SVGID_31_);}
	.st57{clip-path:url(#SVGID_33_);}
	.st58{clip-path:url(#SVGID_35_);}
	.st59{clip-path:url(#SVGID_37_);}
	.st60{fill:#F0B42D;}
	.st61{fill:#705139;}
	.st62{fill:#FFF200;}
	.st63{fill:#19476E;}
	.st64{fill:url(#SVGID_38_);}
	.st65{opacity:0.3;}
	.st66{fill:#7A290F;}
	.st67{fill:url(#SVGID_39_);}
	.st68{opacity:0.4;}
	.st69{display:none;}
	.st70{display:inline;}
</style>
<g id="圖層_11">
	<g>
		<g>
			<g>
				<g>
					<path class="st60" d="M26.1,35.7c-0.8,0-1.5-0.2-2.2-0.5l-1.2-0.5c-1.2-0.5-2.5-1-3.8-1.6c-1.4,0.6-2.7,1.2-3.9,1.7l-1,0.4
						c-0.7,0.3-1.5,0.4-2.2,0.4c-1.2,0-2.3-0.4-3.3-1.1c-1.6-1.2-2.5-3.1-2.3-5.1c0.1-1.6,0.3-3.3,0.5-5.1c-1.3-1.4-2.6-2.9-3.8-4.4
						c-1.2-1.5-1.6-3.5-1-5.4C2.6,12.8,4.1,11.5,6,11c1.5-0.4,3.3-0.7,5.3-1.1c1-1.8,2-3.5,2.9-4.9C15.2,3.3,17,2.3,19,2.3
						c2,0,3.8,1,4.8,2.6c0.9,1.4,1.9,3.1,2.9,4.9c2,0.4,3.7,0.7,5.3,1.1c1.9,0.5,3.4,1.8,4.1,3.7c0.6,1.9,0.3,3.9-1,5.4
						c-1.2,1.5-2.5,3-3.8,4.4c0.2,1.7,0.4,3.4,0.5,5.1c0.2,2-0.7,3.9-2.3,5.1C28.5,35.3,27.3,35.7,26.1,35.7z"/>
					<path class="st61" d="M19,3.3c1.6,0,3.1,0.8,4,2.2c1,1.5,2,3.4,3.1,5.3c2.1,0.4,4,0.8,5.7,1.2c1.6,0.4,2.8,1.5,3.4,3.1
						c0.5,1.5,0.2,3.2-0.8,4.5c-1.3,1.6-2.7,3.2-4,4.6c0.2,1.9,0.4,3.7,0.6,5.5c0.1,1.6-0.6,3.2-1.9,4.2c-0.8,0.6-1.8,0.9-2.7,0.9
						c-0.6,0-1.2-0.1-1.8-0.4l-1-0.4c-1.4-0.6-2.8-1.2-4.3-1.9c-1.5,0.7-3,1.3-4.3,1.9l-1,0.4c-0.6,0.2-1.2,0.4-1.8,0.4
						c-1,0-1.9-0.3-2.7-0.9c-1.3-1-2.1-2.5-1.9-4.2c0.1-1.8,0.3-3.6,0.6-5.5c-1.4-1.5-2.7-3-4-4.6c-1-1.3-1.3-2.9-0.8-4.5
						c0.5-1.5,1.8-2.7,3.4-3.1c1.6-0.4,3.6-0.8,5.7-1.2C13,8.8,14.1,7,15,5.5C15.9,4.1,17.4,3.3,19,3.3 M19,1.3
						c-2.3,0-4.4,1.2-5.7,3.1c-0.9,1.3-1.8,2.9-2.7,4.6c-1.8,0.3-3.4,0.7-4.9,1c-2.2,0.5-4,2.2-4.8,4.4c-0.7,2.2-0.3,4.6,1.1,6.4
						c1.1,1.4,2.3,2.8,3.5,4.1c-0.2,1.6-0.3,3.1-0.5,4.7C5,31.8,6.1,34,8,35.4c1.2,0.8,2.5,1.3,3.9,1.3c0.9,0,1.8-0.2,2.6-0.5l1-0.4
						c1.1-0.5,2.3-1,3.6-1.5c1.2,0.5,2.4,1,3.5,1.5l1,0.4c0.8,0.4,1.7,0.5,2.6,0.5c1.4,0,2.8-0.4,3.9-1.3c1.9-1.4,2.9-3.6,2.8-6
						c-0.1-1.5-0.3-3.1-0.5-4.7c1.2-1.3,2.4-2.7,3.5-4.1c1.5-1.8,1.9-4.2,1.1-6.4c-0.7-2.2-2.5-3.8-4.8-4.4c-1.4-0.3-3.1-0.7-4.9-1
						c-0.9-1.7-1.8-3.2-2.7-4.6C23.4,2.5,21.3,1.3,19,1.3L19,1.3z"/>
				</g>
			</g>
			<path class="st62" d="M20.6,6.5c1.1,1.7,2.2,3.6,3.3,5.7c0.3,0.5,0.8,0.9,1.4,1c2.3,0.4,4.4,0.8,6.2,1.3c1.4,0.3,2,2,1.1,3.1
				c-1.3,1.6-2.7,3.3-4.4,5c-0.4,0.4-0.6,1-0.5,1.6c0.3,2.2,0.5,4.2,0.6,6c0.1,1.5-1.3,2.5-2.7,1.9c-1.8-0.8-3.8-1.6-5.8-2.5
				c-0.5-0.2-1.1-0.2-1.6,0c-2.1,0.9-4,1.7-5.8,2.5c-1.3,0.6-2.8-0.5-2.7-1.9c0.1-1.8,0.3-3.9,0.6-6c0.1-0.6-0.1-1.2-0.5-1.6
				c-1.6-1.7-3.1-3.4-4.4-5c-0.9-1.1-0.3-2.8,1.1-3.1c1.8-0.4,4-0.9,6.2-1.3c0.6-0.1,1.1-0.5,1.4-1c1.1-2.1,2.3-4.1,3.3-5.7
				C18.1,5.3,19.9,5.3,20.6,6.5z"/>
		</g>
	</g>
</g>
<g id="邊線" class="st69">
	<g class="st70">
		<path d="M37.7,0.3v37.5H0.2V0.3H37.7 M38,0H0v38h38V0L38,0z"/>
	</g>
</g>
</svg>
